<svg xmlns="http://www.w3.org/2000/svg" width="512" height="512" fill="none" viewBox="-3.2 -3.2 38.4 38.4"><rect width="38.4" height="38.4" x="-3.2" y="-3.2" fill="#fff" stroke-width="0" rx="5.76"/><g fill="#87c527"><path fill-rule="evenodd" d="M12.592 3.884A6.97 6.97 0 0 1 16 3c1.237 0 2.4.321 3.409.884l.737-.738a.5.5 0 0 1 .708.708l-.593.592A6.99 6.99 0 0 1 23 10H9a6.99 6.99 0 0 1 2.739-5.554l-.593-.592a.5.5 0 0 1 .708-.708zM14 7a1 1 0 1 1-2 0 1 1 0 0 1 2 0m5 1a1 1 0 1 0 0-2 1 1 0 0 0 0 2" clip-rule="evenodd"/><path d="M5 12.5a1.5 1.5 0 0 1 3 0v6a1.5 1.5 0 0 1-3 0zM12 24v3.5a1.5 1.5 0 0 0 3 0V24h2v3.5a1.5 1.5 0 0 0 3 0V24h1a2 2 0 0 0 2-2V11H9v11a2 2 0 0 0 2 2zM24 12.5a1.5 1.5 0 0 1 3 0v6a1.5 1.5 0 0 1-3 0z"/></g></svg>