<svg xmlns="http://www.w3.org/2000/svg" width="512" height="512" fill="#fff" stroke="#fff" viewBox="-51.2 -51.2 614.4 614.4"><rect width="614.4" height="614.4" x="-51.2" y="-51.2" stroke="none" rx="92.16"/><g fill="none" fill-rule="evenodd" stroke-width=".005"><path fill="#1a1918" d="m489.657 206.6 21.42.119s-39.824 53.964-43.076 58.362c-1.056 1.424-2.66 2.96-3.474 4.864-2.057 4.786-4.169 15.285-4.169 15.285l-19.599.097s3.05-10.943 2.924-16.772c-.11-5.093-2.71-10.178-4.168-15.286-1.474-5.169-3.475-15.285-3.475-15.285h20.15l2.779 11.117 30.688-42.5"/><path fill="#1a1918" d="M449.096 217.982c3.953 2.383 6.379 15.528 6.379 15.528s-20.684.305-31.94.305h-9.727l-11.812 51.415h-18.064s11.242-55.875 13.896-66.005c.86-3.279 5.892-2.717 14.389-2.717h13.569c8.762 0 19.003-1.118 23.31 1.474m-84.097 25.04s.563-3.301-1.91-7.122c-2.113-3.259-4.064-4.016-9.623-4.19-15.695-.493-15.39 11.138-15.39 11.138zm17.022-13.32c2.3 8.297-2.084 27.792-2.084 27.792s-22.894-.383-35.434 0c-3.899.119-8.566-.424-9.727 1.39-1.633 2.542.597 6.455 2.487 8.107 2.175 1.904 6.412 2.12 7.935 2.314 10.178 1.293 31.48.334 31.48.334l-3.69 16.34s-30.103 1.51-45.16-2.084c-2.973-.708-5.76-2.139-7.643-4.168-.514-.555-.96-1.313-1.446-1.966-.388-.522-1.52-2.237-2.028-3.593-3.439-9.164.403-26.72 4.169-36.128.437-1.09.986-2.473 1.564-3.648.722-1.465 1.333-3.119 1.91-3.995.388-.604.869-.993 1.272-1.563.465-.674 1.006-1.327 1.507-1.91 1.39-1.613 2.967-2.752 4.863-4.169 6.274-4.697 17.627-8.345 31.266-6.948 5.135.528 12.89 2.362 16.675 7.643 1.014 1.41 1.515 4.21 2.084 6.253zm-82.853-13.256 17.516-.104s-9.762 46.307-14.737 68.888h-20.15c-14.082 0-26.623 1.744-31.959-8.338-5.176-9.789-.236-25.887 2.084-36.824 1.64-7.74 5.094-23.56 5.094-23.56l18.148-.166s-5.128 24.63-7.262 36.927c-.764 4.405-2.34 8.553-.694 11.812 1.563 3.1 3.752 3.32 10.421 3.474 2.113.049 9.033 0 9.033 0l12.506-52.11m-81.985 33.35c1.834-6.516 4.509-13.582 4.169-19.454-.368-6.28-5.634-11.998-9.032-13.2-10.234-3.613-19.815 1.438-23.623 5.557-4.926 5.337-6.594 11.57-8.338 20.15-1.298 6.37-2.362 13.096 0 18.064 4.182 8.783 17.224 6.865 31.266 6.948 2.084-5.585 3.807-11.86 5.558-18.065zm24.318-25.707c2 14.55-5.676 30.607-10.964 44.57 5.392.487 10.117-.075 10.457.327.354.522-3.614 16.669-4.997 16.71-4.279.112-18.459.23-24.372.23-19.295 0-37.345 1.257-46.55-8.338-3.738-3.897-6.323-10.582-6.949-15.285-1.042-7.852.264-16.495 2.085-23.623 1.647-6.434 3.758-12.506 6.948-18.065 8.108-14.152 22.212-24.657 45.855-22.233 4.586.473 11.172 2.481 15.286 4.863.284.168 1.279.96 1.507 1.099 5.559 3.537 10.624 11.978 11.694 19.745zm-85.369-7.559c-1.167 5.315-2.334 11.34-3.564 16.592h-19.454c1.507-5.822 2.66-11.61 4.168-16.675 6.226 0 12.014.083 18.85.083m-23.712 21.455h18.758c-2.452 13.577-7.308 35.476-11.116 50.72-2.383 9.539-3.974 16.501-10.422 21.538-.577.452-.91.237-1.39.695-1.188 1.133-6.684 2.446-9.726 2.779-4.947.535-10.54.07-16.62-.055 1.591-5.815 3.391-12.798 4.809-18.01 14.82 1.794 15.195-12.214 18.064-25.706 1.66-7.796 6.691-28.834 7.642-31.961"/><g fill="#21609b"><path d="m88.647 273.419-.402 1.042c-6.85 13.339-18.989 21.524-36.303 21.885-8.094.167-15.806-1.91-20.844-4.169-10.872-4.884-20.017-13.943-25.011-23.622-7.164-13.875-8.456-33.176 6.44-47.593.23 0-1.807 3.126-1.577 3.126l-.41 1.334c-10.734 33.607 22.337 62.406 54.485 59.113 7.726-.792 17.578-5.023 23.622-11.116"/><path d="M69.193 259.522c8.088.056 16.536-3.724 21.539-9.031-4.377 11.11-17.05 18.251-34.044 15.98-14.23-1.904-27.785-16.224-29.181-30.571-1.022-10.442 2.618-16.675 8.615-24.234-2.084 3.954-2.863 7.003-3.057 8.948-2.279 22.588 18.044 38.79 36.128 38.908"/><path d="M89.92 231.467c-1.258 2.884-8.497 8.33-11.694 9.011-12.659 2.697-20.766-3.306-25.013-10.137-.631-1.02-1.798-3.806-2.007-4.516-1.647-5.6-.89-14.069 4.023-18.453-1.48 4.168-1.696 9.01-.917 12.158.472 1.904 1.91 5.226 3.349 7.316 2.618 3.808 4.279 4.733 7.642 6.755 1.515.91 3.14 1.64 3.842 1.84 3.189.938 9.922 3.412 20.775-3.974"/></g></g></svg>