<svg xmlns="http://www.w3.org/2000/svg" width="512" height="512" fill="none" viewBox="-3.2 -3.2 38.4 38.4"><rect width="38.4" height="38.4" x="-3.2" y="-3.2" fill="#fff" stroke-width="0" rx="5.76"/><path fill="#000" d="m5.306 19.488-.005-5.56v-1.664H2V3l13.92.068 4.354.01c5.211 0 9.725 4.074 9.725 9.456v16.41H15.03c-5.206 0-9.724-4.08-9.724-9.457" opacity=".26"/><path fill="url(#a)" d="M28 24.652v-11.93c0-3.986-3.383-7.218-7.555-7.218h-4.331v-.01L4.4 5.443v4.353h1.798c1.256 0 1.477.896 1.477 2.135l.01 7.696c0 3.986 3.382 7.217 7.55 7.217h10.29c1.32 0 2.475-.864 2.475-2.191"/><path fill="url(#b)" d="M26.978 25.66c-2.632-1.875-4.496-4.028-6.066-6.878-3.095-5.91-2.371-8.844-10.035-9.535-2.212 0-3.685-.506-6.013-.506v.838s.92.482 1.729.482c1.206 0 1.415.865 1.415 2.056l.008 7.376c0 3.83 3.254 6.934 7.259 6.934h9.882c.726 0 1.378-.296 1.821-.767" opacity=".175"/><path fill="#000" fill-opacity=".08" d="M17.819 9.976c-.94 0-1.774.36-2.444 1.06a3.6 3.6 0 0 0-1.022 2.56v4.982h2.186v-4.982c0-.378.12-.674.38-.946.262-.274.54-.397.9-.397.367 0 .64.123.903.397.26.272.38.568.38.945v4.983h2.187v-4.982c0-.378.119-.674.38-.946.262-.274.536-.397.903-.397.36 0 .637.123.9.397.26.272.38.568.38.945l.011 5.822c0 1.242-1.144 2.29-2.614 2.29l-7.05-.03c-1.135 0-2.104-1.14-2.104-2.607V8.106h-2.068v11.385c0 1.208.428 2.268 1.26 3.124.711.726 1.566 1.155 2.527 1.261v.041h7.851c1.206 0 2.266-.464 3.122-1.363h.003a4.58 4.58 0 0 0 1.256-2.74l-.008-6.218c0-.986-.352-1.86-1.022-2.56s-1.505-1.06-2.444-1.06c-.922 0-1.728.355-2.38 1.003-.65-.647-1.452-1.003-2.373-1.003"/><path fill="#fff" d="M17.644 10.036c-.939 0-1.773.36-2.444 1.06a3.6 3.6 0 0 0-1.022 2.56v4.982h2.187v-4.983c0-.378.119-.673.38-.946.262-.273.54-.397.9-.397.367 0 .64.123.902.397.261.273.38.568.38.946v4.983h2.187v-4.983c0-.378.12-.673.38-.946.263-.274.536-.397.904-.397.36 0 .637.124.899.397.26.273.38.568.38.946l.012 5.822c0 1.242-1.144 2.289-2.614 2.289l-7.051-.029c-1.135 0-2.104-1.141-2.104-2.608V8.166H9.853V19.55c0 1.208.427 2.267 1.26 3.124.71.725 1.566 1.195 2.526 1.302h7.852c1.206 0 2.266-.464 3.121-1.364h.004a4.58 4.58 0 0 0 1.256-2.739l-.008-6.219a3.6 3.6 0 0 0-1.022-2.559c-.67-.7-1.505-1.06-2.444-1.06-.922 0-1.729.354-2.381 1.003-.65-.648-1.451-1.003-2.373-1.003"/><path fill="#fff" d="M15.167 28.495c-4.97 0-9.284-3.895-9.284-9.027l-.004-6.232v-1.59H2.728V3.73l17.444.073c4.975 0 9.284 3.89 9.284 9.027v15.666zm12.264-4.202V12.829c0-3.83-3.25-6.934-7.258-6.934l-15.416-.06v3.719h1.26c.857 0 1.886.831 1.886 2.051l.01 7.858c0 3.83 3.249 6.935 7.254 6.935h9.887c1.268 0 2.377-.83 2.377-2.105"/><defs><linearGradient id="a" x1="6.653" x2="19.347" y1="8.173" y2="21.64" gradientUnits="userSpaceOnUse"><stop stop-color="#c7f994"/><stop offset="1" stop-color="#87cf3e"/></linearGradient><linearGradient id="b" x1="9.245" x2="17.154" y1="24.612" y2="12.614" gradientUnits="userSpaceOnUse"><stop stop-color="#3d3d3d"/><stop offset="1" stop-opacity=".114"/></linearGradient></defs></svg>