<svg xmlns="http://www.w3.org/2000/svg" width="512" height="512" fill="#fff" viewBox="-19.12 -19.12 229.39 229.39"><rect width="229.39" height="229.39" x="-19.12" y="-19.12" stroke-width="0" rx="34.408"/><path fill="none" d="M0 29.33h191.15v132.49H0Z"/><path fill="#5d87a1" d="M58.511 136.333h-5.175q-.275-13.101-1.51-24.642h-.047L43.9 136.333h-3.94l-7.832-24.642h-.045q-.87 11.082-1.099 24.642h-4.717q.457-16.49 2.29-30.919h6.413l7.465 22.719h.046l7.511-22.719h6.137q2.016 16.903 2.382 30.919m22.443-22.812q-3.161 17.15-8.337 24.928-4.03 5.989-8.84 5.99-1.284-.001-3.16-.77v-2.757c.611.088 1.328.138 2.152.138 1.498 0 2.702-.412 3.62-1.238q1.647-1.51 1.647-3.388 0-1.285-1.282-5.268l-5.679-17.636h5.084l4.076 13.19q1.374 4.491 1.145 6.277 3.344-8.93 4.673-19.468h4.901z"/><path fill="#f8981d" d="M149.84 136.333h-14.7v-30.919h4.944v27.113h9.755zm-18.549.747-5.684-2.805c.504-.414.986-.862 1.42-1.381q3.622-4.256 3.621-12.594 0-15.345-12.045-15.346c-3.938 0-7.01 1.298-9.207 3.895q-3.62 4.259-3.619 12.551c0 5.435 1.068 9.422 3.205 11.951q2.932 3.437 8.843 3.438 2.206 0 4.048-.543l7.4 4.308zm-18.413-6.934q-1.878-3.02-1.878-9.707c0-7.785 2.365-11.682 7.1-11.682q3.711.001 5.45 2.792 1.877 3.024 1.878 9.619 0 11.774-7.099 11.774c-2.476.001-4.29-.928-5.45-2.796m-9.257-2.383q0 3.932-2.884 6.458-2.887 2.518-7.737 2.519c-3.024 0-5.956-.966-8.794-2.888l1.33-2.655q3.66 1.833 6.637 1.831 2.793-.002 4.375-1.232c1.055-.822 1.684-1.975 1.684-3.433 0-1.837-1.28-3.407-3.63-4.722-2.168-1.19-6.502-3.678-6.502-3.678-2.349-1.712-3.525-3.55-3.525-6.578q0-3.76 2.632-6.068 2.635-2.316 6.803-2.315c2.87 0 5.48.769 7.83 2.291l-1.193 2.656q-3.016-1.281-5.95-1.281c-1.586 0-2.81.381-3.66 1.146-.859.762-1.388 1.737-1.388 2.933 0 1.828 1.308 3.418 3.722 4.759 2.196 1.192 6.638 3.723 6.638 3.723 2.41 1.709 3.612 3.53 3.612 6.534"/><path fill="#5d87a1" d="M156.047 95.058c-2.99-.076-5.305.225-7.248 1.047-.56.224-1.453.224-1.53.933.302.3.337.784.6 1.198.448.747 1.23 1.752 1.942 2.276.783.6 1.57 1.194 2.393 1.717 1.453.899 3.1 1.422 4.516 2.318.825.521 1.645 1.195 2.471 1.756.406.299.666.784 1.193.971v-.114c-.264-.336-.339-.822-.598-1.196l-1.122-1.082c-1.084-1.456-2.43-2.727-3.884-3.771-1.196-.824-3.812-1.944-4.297-3.322l-.076-.076c.822-.077 1.797-.375 2.578-.604 1.271-.335 2.43-.259 3.734-.594.6-.15 1.195-.338 1.797-.523v-.337c-.676-.673-1.158-1.567-1.869-2.203-1.902-1.643-3.998-3.25-6.164-4.595-1.16-.749-2.652-1.231-3.887-1.868-.445-.225-1.195-.336-1.457-.71-.67-.822-1.047-1.904-1.533-2.877-1.08-2.053-2.129-4.331-3.06-6.502-.675-1.456-1.085-2.91-1.907-4.257-3.85-6.35-8.03-10.196-14.457-13.971-1.38-.786-3.024-1.121-4.779-1.533l-2.803-.148c-.598-.262-1.197-.973-1.719-1.309-2.132-1.344-7.62-4.257-9.189-.411-1.01 2.431 1.494 4.821 2.354 6.054.635.856 1.458 1.83 1.902 2.802.263.635.337 1.309.6 1.98.598 1.644 1.157 3.473 1.943 5.007.41.782.857 1.604 1.381 2.312.3.414.822.597.936 1.272-.52.744-.562 1.867-.86 2.801-1.345 4.221-.82 9.45 1.085 12.552.596.934 2.018 2.99 3.92 2.202 1.684-.672 1.311-2.801 1.795-4.668.111-.451.038-.747.262-1.043v.073c.521 1.045 1.047 2.052 1.53 3.1 1.16 1.829 3.177 3.735 4.858 5.002.895.676 1.604 1.832 2.725 2.245v-.112h-.074c-.227-.335-.559-.485-.857-.745-.674-.673-1.42-1.495-1.943-2.241-1.566-2.093-2.952-4.41-4.182-6.801-.602-1.16-1.12-2.428-1.606-3.586-.226-.447-.226-1.121-.6-1.346-.563.821-1.382 1.532-1.792 2.538-.71 1.609-.785 3.588-1.049 5.646l-.147.072c-1.19-.299-1.604-1.53-2.056-2.575-1.119-2.654-1.307-6.914-.336-9.976.26-.783 1.385-3.249.936-3.995-.225-.715-.973-1.122-1.383-1.685-.482-.708-1.01-1.604-1.346-2.39-.896-2.091-1.347-4.408-2.312-6.498-.45-.974-1.234-1.982-1.868-2.879-.712-1.008-1.495-1.718-2.058-2.913-.186-.411-.447-1.083-.148-1.53.073-.3.225-.412.523-.487.484-.409 1.867.111 2.352.336 1.385.56 2.543 1.083 3.7 1.867.522.375 1.083 1.085 1.754 1.272h.786c1.193.26 2.538.072 3.661.41 1.98.636 3.772 1.569 5.38 2.576 4.893 3.103 8.928 7.512 11.652 12.778.447.858.637 1.644 1.045 2.539.787 1.832 1.76 3.7 2.541 5.493.785 1.755 1.533 3.547 2.654 5.005.56.784 2.805 1.195 3.812 1.606.745.335 1.905.633 2.577 1.044 1.271.783 2.537 1.682 3.732 2.543.595.448 2.465 1.382 2.576 2.13m-38.106-32.464a5.8 5.8 0 0 0-1.529.188v.075h.072c.301.597.824 1.011 1.197 1.532.301.599.562 1.193.857 1.791l.072-.074c.527-.373.79-.971.79-1.868-.228-.264-.263-.522-.452-.784-.22-.374-.705-.56-1.007-.86"/><path fill="#f8981d" d="M159.605 136.328h.774v-3.788h-1.16l-.948 2.585-1.029-2.585h-1.118v3.788h.731v-2.882h.041l1.078 2.882h.557l1.074-2.882zm-6.235 0h.82v-3.146h1.071v-.643h-3.008v.643h1.115z"/></svg>