<svg xmlns="http://www.w3.org/2000/svg" width="512" height="512" fill="#fff" preserveAspectRatio="xMidYMid" viewBox="-25.6 -25.6 307.2 307.2"><rect width="307.2" height="307.2" x="-25.6" y="-25.6" rx="46.08"/><path fill="#41cd52" d="M35.513 32.204.002 68.29v155.506h220.485l35.511-36.083V32.204h-33.505z"/><path d="M95.455 65.717c16.665 0 28.357 4.788 34.988 14.452 6.718 9.575 10.034 24.381 10.034 44.418 0 13.21-1.396 23.848-4.1 31.917-2.794 8.157-7.243 14.363-13.525 18.619l13.524 22.252-16.665 7.892-14.396-24.028c-2.094.62-5.323.976-9.86.976-16.84 0-28.618-4.61-35.25-13.831-6.63-9.22-9.946-23.849-9.946-43.71 0-19.947 3.403-34.753 10.12-44.416 6.72-9.665 18.411-14.541 35.076-14.541m84.983 6.384v23.938h22.337v15.337h-22.337v36.262c0 6.738.524 11.17 1.484 13.3.958 2.216 3.49 3.28 7.416 3.28l13.262-.533.785 14.363q-10.732 2.127-16.49 2.128-13.743 0-18.847-6.383c-3.402-4.256-5.147-12.325-5.147-24.204v-38.3h-12.39v-15.25h12.39V72.1Zm-84.663 8.426c-10.1 0-17.064 3.428-20.895 10.373-3.743 6.946-5.659 17.95-5.659 33.194 0 15.154 1.829 26.068 5.485 32.563 3.657 6.494 10.708 9.831 21.069 9.831s17.325-3.247 20.981-9.651c3.57-6.404 5.398-17.319 5.398-32.563 0-15.334-1.828-26.428-5.572-33.374-3.743-6.945-10.708-10.373-20.807-10.373"/></svg>