<svg xmlns="http://www.w3.org/2000/svg" width="512" height="512" fill="#fff" preserveAspectRatio="xMidYMid" viewBox="-51.2 -51.2 614.4 614.4"><rect width="614.4" height="614.4" x="-51.2" y="-51.2" rx="92.16"/><g transform="translate(.11 142.43)"><defs><linearGradient id="a" x1="92.7" x2="92.7" y1="17.66" y2="157.96" gradientTransform="scale(.97318 1.02756)" gradientUnits="userSpaceOnUse"><stop offset="0%" stop-color="#97d9f6"/><stop offset="92.02%" stop-color="#0f80cc"/><stop offset="100%" stop-color="#0f80cc"/></linearGradient></defs><path fill="#003b57" d="M194.52 112.04q-10.24 0-16.62 6.06-6.39 6.07-6.4 15.82 0 5.04 1.58 9.24 1.6 4.23 4.9 7.78c3.3 3.55 6.64 5.56 13.22 9.64q12.12 7.38 15.92 12.06 3.8 4.7 3.8 9.81c0 4.57-1.5 8.22-4.6 10.96q-4.66 4.12-12.37 4.11a20 20 0 0 1-14.2-5.7q-6.07-5.69-6.14-15.11h-2.52v22.85h2.52q1.15-3.26 3.23-3.27 1.01.02 4.69 1.32c5.94 2.12 10.83 3.14 14.67 3.14q9.92.02 16.97-7.03a23.2 23.2 0 0 0 7.07-17.01q-.01-7.72-4.64-13.7-4.6-5.99-17.99-13.97-11.53-6.92-14.98-11.32a15.4 15.4 0 0 1-3.5-9.72q.02-5.77 4.2-9.24c2.8-2.3 6.44-3.44 11.01-3.44q7.72-.01 12.82 4.6 5.07 4.6 5.92 12.8h2.52v-19.8h-2.34a6 6 0 0 1-.8 1.95q-.35.45-1.37.45-1.22 0-4.33-1.02a39 39 0 0 0-12.24-2.26m82.34 0a44.7 44.7 0 0 0-22.67 5.88q-10.25 5.88-16.22 16.27c-5.97 10.39-5.97 14.27-5.97 22.1q-.02 15.79 10.39 28.1 10.43 12.34 24.93 15.3 3.3 1.72 9.5 8.93c4.66 5.42 8.6 9.34 11.84 11.67a36 36 0 0 0 10.43 5.17q5.54 1.69 12.03 1.68 7.85.02 14.05-2.79l-.93-2.3q-3.6 1.3-7.64 1.29-5.5 0-11.05-3.63t-13.84-13.88q-3.88-4.92-5.39-6.14a43.6 43.6 0 0 0 26.03-15.38 42.8 42.8 0 0 0 10.17-28.02q-.02-18.65-13.22-31.43-13.19-12.8-32.44-12.82m51.4 0 .14 2.7q8.29 0 9.32 4.9.38 1.78.4 6.46l-.04 59.62q-.07 6.68-1.9 8.53-1.81 1.85-6.28 2.3l-.13 2.7h55.16l1.41-13.53h-2.52c-.72 3.69-2.37 6.33-5 7.83q-3.93 2.25-14 2.25h-5.22q-9.08 0-10.47-6.58c-.2-.87-.26-1.8-.27-2.83l.22-60.3q-.01-6.68 1.73-8.87 1.76-2.18 6.36-2.48l-.13-2.7zm-50.51 3.27q14.06-.01 22.94 11.14 8.84 11.19 8.84 30.59 0 18.37-8.93 29.44-8.95 11.05-23.74 11.05-14.2 0-23.03-11.4-8.81-11.42-8.8-29.67 0-18.75 8.9-29.96 8.9-11.2 23.82-11.18m126.85 12.81c-1.35 0-2.37.46-3.14 1.37a3.7 3.7 0 0 0-.75 3.36q.4 1.96 2.16 3.4a5.8 5.8 0 0 0 3.76 1.47q1.95-.01 3-1.46 1.08-1.45.67-3.4a5.8 5.8 0 0 0-2.08-3.37 5.6 5.6 0 0 0-3.62-1.37m36.37 9.15q-3.43 13.19-14.85 14.32l.1 2.52h8.88l-.18 29.8q0 7.63.53 10.2 1.3 6.21 8.09 6.23 9.8 0 20.55-11.93l-2.17-1.86q-7.75 7.87-13.74 7.87-3.7 0-4.55-4.2a11 11 0 0 1-.22-2.38l.08-33.73h13.57l-.13-4.02h-13.4v-12.82zm52.47 11.23q-11.39.01-18.57 11t-4.37 24.4q1.63 7.87 6.67 12.16 5.07 4.28 12.73 4.28c4.75 0 11.36-1.2 14.15-3.62q4.18-3.64 7.73-11.71l-1.9-2c-3.79 6.98-11.43 10.48-17.2 10.48q-11.87 0-14.58-13a32 32 0 0 1-.53-3.53q14.15-2.23 21.4-7.95c4.81-3.83 9.65-7.88 8.74-12.16a9.9 9.9 0 0 0-3.89-6.05c-2.05-1.51-7.4-2.3-10.38-2.3m-82.96.3-16.36 3.77v2.91l5.66-.7q4.1 0 4.86 3.7.26 1.26.31 3.46l-.18 26.74q-.05 5.54-1.28 6.5-1.25.96-6.58.97l-.1 2.51h25.95l-.04-2.52q-5.41 0-6.98-.84c-1.03-.55-1.73-1.55-2.04-3.09-.23-1.1-.33-3.02-.35-5.66l.09-37.74zm78.8 4.96c1.58 0 3.1.6 4.64 1.81q2.28 1.8 2.74 3.98c1.48 7.1-4.82 12.02-19 14.76q-.62-7.77 2.78-14.14 3.43-6.4 8.84-6.41"/><path fill="#0f80cc" d="M157.89 9.95H17.15A17.2 17.2 0 0 0 0 27.1v155.21a17.2 17.2 0 0 0 17.15 17.15h92.7c-1.06-46.12 14.7-135.63 48.04-189.5"/><path fill="url(#a)" d="M152.78 14.96H17.15C10.45 14.96 5 20.4 5 27.1V171c30.72-11.8 76.82-21.96 108.7-21.5 6.4-33.5 25.23-99.14 39.08-134.53" style="fill:url(#a)"/><path fill="#003b57" d="M190.72 4.87c-9.64-8.6-21.31-5.14-32.83 5.08a81 81 0 0 0-5.11 5c-19.7 20.9-38 59.63-43.68 89.2 2.21 4.48 3.94 10.21 5.08 14.59a139 139 0 0 1 1.54 6.57s-.18-.67-.9-2.77l-.48-1.36-.3-.76c-1.29-2.98-4.84-9.29-6.41-12.04a301 301 0 0 0-3.51 10.99c4.52 8.26 7.27 22.43 7.27 22.43s-.24-.92-1.37-4.13c-1.01-2.83-6.03-11.62-7.22-13.68-2.03 7.5-2.84 12.58-2.11 13.81 1.41 2.4 2.76 6.52 3.94 11.08 2.68 10.28 4.53 22.8 4.53 22.8l.16 2.1c-.37 8.64-.14 17.59.52 25.68.89 10.7 2.56 19.9 4.68 24.83l1.44-.78c-3.12-9.7-4.38-22.42-3.83-37.08.84-22.4 6-49.44 15.53-77.6 16.1-42.53 38.43-76.65 58.88-92.94-18.64 16.83-43.85 71.3-51.4 91.47-8.46 22.59-14.45 43.78-18.06 64.09 6.23-19.04 26.37-27.22 26.37-27.22s9.88-12.18 21.42-29.59c-6.91 1.58-18.27 4.28-22.07 5.88-5.61 2.35-7.12 3.15-7.12 3.15s18.17-11.06 33.76-16.07c21.44-33.77 44.8-81.74 21.27-102.73"/></g></svg>